<?xml version="1.0" encoding="UTF-8" standalone="no"?>
<svg
   version="1.0"
   width="618.1748pt"
   height="381.34824pt"
   viewBox="0 0 618.1748 381.34824"
   preserveAspectRatio="xMidYMid meet"
   id="svg16"
   sodipodi:docname="cloud-logo.svg"
   inkscape:version="1.1.2 (b8e25be833, 2022-02-05)"
   xmlns:inkscape="http://www.inkscape.org/namespaces/inkscape"
   xmlns:sodipodi="http://sodipodi.sourceforge.net/DTD/sodipodi-0.dtd"
   xmlns="http://www.w3.org/2000/svg"
   xmlns:svg="http://www.w3.org/2000/svg">
  <defs
     id="defs20" />
  <sodipodi:namedview
     id="namedview18"
     pagecolor="#ffffff"
     bordercolor="#666666"
     borderopacity="1.0"
     inkscape:pageshadow="2"
     inkscape:pageopacity="0.0"
     inkscape:pagecheckerboard="0"
     inkscape:document-units="pt"
     showgrid="false"
     inkscape:lockguides="false"
     inkscape:zoom="0.83628975"
     inkscape:cx="116.58639"
     inkscape:cy="299.53733"
     inkscape:window-width="1920"
     inkscape:window-height="1013"
     inkscape:window-x="-9"
     inkscape:window-y="-9"
     inkscape:window-maximized="1"
     inkscape:current-layer="svg16"
     fit-margin-top="0"
     fit-margin-left="0"
     fit-margin-right="0"
     fit-margin-bottom="0"
     showguides="false" />
  <g
     transform="matrix(0.1,0,0,-0.1,-16.5,492.81291)"
     fill="#000000"
     stroke="none"
     id="g14">
    <path
       fill="#53c6d9"
       d="m 2715,4919 c -422,-41 -778,-267 -1002,-635 -29,-47 -66,-120 -84,-162 l -31,-77 -126,-1 C 895,4041 400,3677 222,3125 c -44,-135 -57,-223 -57,-395 0,-124 5,-176 23,-264 132,-617 658,-1046 1282,-1046 225,0 418,45 607,141 l 95,48 81,-85 c 108,-115 228,-203 372,-274 139,-68 176,-81 317,-111 140,-30 391,-33 523,-5 316,66 605,247 792,494 l 60,80 47,-30 c 126,-78 326,-145 503,-169 109,-14 331,-7 433,15 244,53 460,168 639,341 117,113 193,213 259,342 179,349 197,737 51,1101 -137,345 -432,626 -783,746 -88,31 -236,65 -279,66 -22,0 -51,23 -140,114 -259,262 -594,406 -945,406 -81,0 -233,-20 -302,-40 -60,-17 -78,-12 -145,43 -173,143 -442,252 -686,277 -111,11 -136,11 -254,-1 z m 349,-184 c 457,-99 796,-430 897,-875 23,-99 37,-344 21,-353 -5,-4 -44,14 -86,40 l -76,46 v 52 c 0,145 -58,339 -142,475 -59,97 -176,224 -264,286 -81,58 -231,129 -329,156 -68,19 -104,22 -245,22 -198,-1 -271,-17 -427,-94 -204,-100 -357,-255 -459,-463 -19,-38 -33,-56 -42,-52 -7,3 -42,13 -78,22 -35,9 -64,22 -64,28 0,15 77,162 116,220 143,216 391,400 629,466 183,50 387,60 549,24 z m 1289,-295 c 155,-34 321,-111 442,-203 53,-40 115,-99 115,-109 0,-4 -15,-8 -32,-8 -18,-1 -62,-7 -98,-15 l -65,-13 -67,44 c -170,114 -308,155 -528,160 l -155,4 -38,53 c -21,28 -47,63 -57,77 l -18,26 66,2 c 36,2 69,5 72,9 11,12 278,-8 363,-27 z m -1340,-35 c 314,-66 572,-335 628,-653 6,-39 10,-75 7,-78 -5,-4 -153,33 -166,41 -1,1 -9,28 -17,60 -9,32 -33,92 -55,135 -98,188 -268,306 -489,341 -265,41 -554,-122 -666,-376 -14,-30 -27,-55 -31,-55 -17,0 -134,77 -134,89 0,29 76,154 137,227 126,147 281,236 488,278 49,10 236,4 298,-9 z m 1332,-309 c 44,-15 99,-37 123,-49 l 43,-23 -95,-48 c -52,-27 -99,-45 -106,-41 -6,4 -54,15 -107,24 l -96,17 -27,78 -28,79 106,-6 c 77,-4 129,-12 187,-31 z m -1400,-21 c 96,-25 165,-64 230,-129 56,-56 103,-129 120,-183 6,-23 5,-23 -82,-23 h -88 l -25,40 c -13,21 -45,55 -70,73 -203,154 -479,24 -498,-234 -3,-45 -9,-69 -16,-67 -6,2 -41,35 -78,75 -67,71 -67,71 -56,110 64,239 329,398 563,338 z m 2268,-130 c 362,-55 686,-295 848,-630 304,-630 -7,-1367 -671,-1589 -146,-49 -227,-59 -405,-53 -183,6 -302,34 -450,107 -148,72 -140,62 -109,145 15,39 30,74 34,78 4,4 36,-10 71,-31 124,-76 238,-113 399,-133 289,-34 604,80 807,294 88,93 124,145 178,260 74,156 90,234 89,427 -1,149 -3,174 -28,255 -53,177 -129,306 -252,429 -208,209 -483,309 -779,284 -279,-23 -527,-163 -704,-398 l -59,-78 -22,23 c -22,23 -22,26 -11,127 l 12,103 62,60 c 193,186 419,297 672,328 74,10 228,6 318,-8 z m -3570,-80 c 167,-25 346,-96 492,-194 59,-40 235,-207 235,-223 0,-5 -26,-33 -57,-62 l -58,-54 -80,82 c -130,132 -278,219 -460,268 -104,28 -306,35 -419,14 -307,-58 -573,-265 -706,-548 -146,-311 -118,-680 72,-962 52,-78 166,-195 244,-252 293,-211 686,-240 1016,-74 l 77,39 36,-67 c 19,-37 33,-72 31,-79 -3,-7 -27,-23 -53,-37 -449,-227 -964,-157 -1323,181 -245,230 -372,545 -357,882 14,305 134,571 347,775 268,254 608,365 963,311 z m 3484,-245 c 227,-31 435,-152 558,-325 242,-341 204,-786 -91,-1066 -103,-97 -191,-148 -334,-194 -73,-24 -103,-28 -215,-29 -97,-1 -149,4 -205,18 -88,22 -239,92 -293,137 l -38,31 6,72 c 3,39 8,86 11,104 l 5,33 71,-66 c 272,-251 719,-211 942,85 94,126 131,240 130,400 -1,122 -11,164 -66,280 -32,67 -57,101 -117,161 -195,195 -443,247 -703,149 -158,-59 -313,-225 -368,-393 l -12,-39 -35,64 c -20,34 -44,75 -55,90 l -19,28 31,57 c 63,120 203,253 330,318 71,35 158,64 240,79 96,18 131,18 227,6 z m -1632,-84 c 117,-31 313,-124 399,-190 134,-102 243,-229 324,-376 248,-453 154,-1030 -224,-1379 -321,-295 -753,-388 -1159,-249 -118,40 -182,73 -287,148 -462,329 -615,928 -368,1436 153,315 443,545 777,619 105,22 118,23 283,20 130,-2 171,-7 255,-29 z m -1850,-11 c 167,-35 318,-123 439,-257 31,-34 56,-65 56,-69 0,-4 -22,-42 -49,-85 l -49,-76 -16,30 c -9,17 -34,52 -57,78 -198,229 -511,295 -779,163 -120,-59 -231,-170 -288,-289 -74,-153 -89,-283 -52,-439 39,-161 133,-295 275,-390 116,-77 183,-96 345,-96 165,0 237,19 353,96 43,28 79,49 81,48 5,-8 29,-135 30,-158 1,-21 -11,-31 -81,-67 -136,-69 -223,-89 -388,-88 -125,0 -149,3 -225,28 -296,97 -502,326 -561,627 -73,372 136,761 486,901 145,58 327,74 480,43 z m 3592,-285 c 134,-66 209,-154 252,-294 67,-219 -36,-454 -246,-558 -81,-40 -91,-43 -188,-46 -153,-6 -256,32 -356,132 -260,259 -155,680 200,798 43,14 78,17 154,15 91,-4 103,-7 184,-47 z m -3653,-46 c 143,-37 249,-118 312,-239 46,-89 56,-140 39,-204 -7,-29 -19,-94 -25,-144 -14,-111 -28,-142 -95,-211 -144,-150 -394,-184 -578,-78 -290,167 -319,589 -53,789 125,93 261,123 400,87 z"
       id="path2" />
    <path
       fill="#53c6d9"
       d="m 3102,3399 c -209,-24 -378,-100 -548,-246 -95,-81 -211,-246 -255,-362 -53,-141 -63,-198 -62,-371 0,-150 2,-173 27,-255 111,-369 396,-632 761,-702 113,-22 342,-13 445,16 106,30 263,111 345,176 252,201 387,496 372,810 -13,259 -104,469 -282,648 -161,161 -359,259 -585,287 -94,11 -113,11 -218,-1 z m 302,-184 c 251,-66 450,-237 553,-475 134,-313 48,-700 -205,-918 -143,-124 -275,-182 -458,-202 -332,-38 -659,139 -808,437 -57,115 -78,195 -83,328 -7,166 11,256 84,403 49,100 66,124 147,205 127,128 273,205 448,236 71,13 249,5 322,-14 z"
       id="path4" />
    <path
       fill="#53c6d9"
       d="m 3062,3055 c -111,-24 -207,-79 -303,-175 -71,-70 -94,-100 -127,-170 -49,-104 -66,-177 -65,-295 0,-164 56,-305 169,-425 125,-132 262,-197 439,-207 115,-6 212,14 325,68 158,76 291,241 336,419 22,85 22,226 0,310 -60,232 -255,423 -483,474 -86,19 -205,19 -291,1 z m 289,-175 c 224,-69 368,-300 329,-529 -58,-346 -450,-514 -742,-318 -231,155 -274,483 -92,702 119,141 326,201 505,145 z"
       id="path6" />
    <path
       fill="#53c6d9"
       d="m 3150,2731 c -93,-19 -174,-83 -222,-173 -31,-61 -32,-193 -2,-259 32,-70 86,-123 155,-154 55,-24 70,-27 143,-23 126,7 211,61 263,166 24,48 28,70 28,137 0,67 -4,89 -28,137 -15,31 -44,71 -64,89 -75,65 -188,98 -273,80 z m 137,-186 c 60,-40 81,-131 43,-192 -50,-83 -157,-94 -226,-22 -26,27 -29,37 -29,94 0,57 3,67 30,95 48,51 126,61 182,25 z"
       id="path8" />
    <path
       fill="#53c6d9"
       d="m 4923,3104 c -58,-21 -138,-96 -171,-158 -22,-43 -26,-64 -26,-131 0,-68 4,-88 29,-139 55,-109 150,-169 275,-170 63,-1 84,4 132,27 230,112 239,431 16,552 -43,24 -67,29 -133,32 -54,2 -94,-2 -122,-13 z m 187,-173 c 37,-26 70,-97 63,-135 -25,-137 -192,-170 -263,-53 -76,124 81,272 200,188 z"
       id="path10" />
    <path
       fill="#53c6d9"
       d="m 1364,3020 c -72,-29 -128,-80 -163,-152 -27,-52 -31,-72 -31,-138 0,-128 61,-224 180,-283 70,-34 186,-31 263,6 106,53 169,156 170,282 2,165 -124,294 -293,302 -58,2 -87,-1 -126,-17 z m 200,-180 c 103,-91 45,-250 -91,-250 -128,0 -185,163 -88,249 31,27 44,31 90,31 46,0 59,-5 89,-30 z"
       id="path12" />
  </g>
</svg>
